<svg width="3107" height="1586" viewBox="0 0 3107 1586" fill="none" xmlns="http://www.w3.org/2000/svg">
<circle cx="599.5" cy="692.5" r="599.5" fill="#F6AB54"/>
<path d="M2188.74 986.5C2188.74 1317.59 1920.33 1586 1589.24 1586C1258.15 1586 989.74 1317.59 989.74 986.5C989.74 655.405 1258.15 387 1589.24 387C1920.33 387 2188.74 655.405 2188.74 986.5Z" fill="#F6AB54"/>
<circle cx="2507.5" cy="654.5" r="599.5" fill="#F6AB54"/>
<path d="M765.887 1101H280.887V1034L325.887 1024C337.887 1021.33 345.553 1017.67 348.887 1013C352.887 1008.33 354.887 999.333 354.887 986V496C354.887 482.667 352.887 473.667 348.887 469C345.553 464.333 337.887 460.667 325.887 458L280.887 448V381H542.887V448L486.887 458C474.887 460.667 466.887 464.333 462.887 469C459.553 473.667 457.887 482.667 457.887 496V1018H641.887C655.22 1018 664.553 1016 669.887 1012C675.887 1008 679.22 1000.33 679.887 989L685.887 911H758.887L765.887 1101ZM1345.71 1038V1101H1196.71L1189.71 1030C1167.71 1054.67 1142.38 1074.33 1113.71 1089C1085.05 1103.67 1054.71 1111 1022.71 1111C973.382 1111 934.715 1098.33 906.715 1073C878.715 1047.67 864.715 1011.67 864.715 965V721C864.715 709 863.048 700.667 859.715 696C857.048 691.333 851.048 688.333 841.715 687L795.715 681V619H962.715V941C962.715 969 970.048 990.333 984.715 1005C999.382 1019 1020.38 1026 1047.71 1026C1074.38 1026 1098.71 1020 1120.71 1008C1143.38 996 1162.71 979.333 1178.71 958V721C1178.71 709 1177.05 700.667 1173.71 696C1170.38 690.667 1164.38 687.667 1155.71 687L1106.71 681V619H1276.71V998C1276.71 1009.33 1278.05 1017.67 1280.71 1023C1284.05 1027.67 1290.05 1030.33 1298.71 1031L1345.71 1038ZM1855.58 649C1835.58 663.667 1811.58 672.667 1783.58 676C1794.92 690 1803.58 706.667 1809.58 726C1815.58 745.333 1818.58 765 1818.58 785C1818.58 821.667 1808.92 854.667 1789.58 884C1770.92 912.667 1744.92 935.333 1711.58 952C1678.92 968 1641.92 976 1600.58 976C1593.25 976 1582.92 975.333 1569.58 974L1545.58 1027C1545.58 1038.33 1553.58 1045.33 1569.58 1048C1603.58 1054 1638.92 1059.33 1675.58 1064C1688.92 1066 1701.58 1068 1713.58 1070C1726.25 1072 1738.25 1074 1749.58 1076C1782.25 1081.33 1806.92 1092 1823.58 1108C1840.92 1124.67 1849.58 1147.33 1849.58 1176C1849.58 1207.33 1839.25 1236.33 1818.58 1263C1797.92 1289.67 1768.92 1311 1731.58 1327C1694.92 1343 1653.25 1351 1606.58 1351C1561.92 1351 1520.58 1345.67 1482.58 1335C1444.58 1324.33 1415.25 1310 1394.58 1292L1416.58 1166H1481.58L1482.58 1238C1498.58 1248.67 1520.25 1257 1547.58 1263C1574.92 1269.67 1605.25 1273 1638.58 1273C1676.58 1273 1705.92 1266.33 1726.58 1253C1747.25 1240.33 1757.58 1223 1757.58 1201C1757.58 1179 1741.25 1165.67 1708.58 1161C1673.92 1155 1650.58 1151.33 1638.58 1150C1593.25 1142.67 1555.92 1136.33 1526.58 1131C1502.58 1126.33 1484.58 1117.33 1472.58 1104C1460.58 1091.33 1454.58 1073 1454.58 1049L1512.58 961C1477.92 948.333 1450.58 927.667 1430.58 899C1411.25 869.667 1401.58 834.667 1401.58 794C1401.58 758.667 1410.25 727 1427.58 699C1444.92 670.333 1470.25 648 1503.58 632C1537.58 616 1577.58 608 1623.58 608C1692.25 608 1738.58 607 1762.58 605C1786.58 603 1817.58 597 1855.58 587V649ZM1616.58 908C1651.92 908 1677.25 898.333 1692.58 879C1707.92 859.667 1715.58 830 1715.58 790C1715.58 712.667 1678.25 674 1603.58 674C1565.58 674 1539.58 683 1525.58 701C1511.58 718.333 1504.58 747.667 1504.58 789C1504.58 827.667 1513.92 857.333 1532.58 878C1551.25 898 1579.25 908 1616.58 908ZM2434.58 1038V1101H2285.58L2278.58 1030C2256.58 1054.67 2231.25 1074.33 2202.58 1089C2173.92 1103.67 2143.58 1111 2111.58 1111C2062.25 1111 2023.58 1098.33 1995.58 1073C1967.58 1047.67 1953.58 1011.67 1953.58 965V721C1953.58 709 1951.92 700.667 1948.58 696C1945.92 691.333 1939.92 688.333 1930.58 687L1884.58 681V619H2051.58V941C2051.58 969 2058.92 990.333 2073.58 1005C2088.25 1019 2109.25 1026 2136.58 1026C2163.25 1026 2187.58 1020 2209.58 1008C2232.25 996 2251.58 979.333 2267.58 958V721C2267.58 709 2265.92 700.667 2262.58 696C2259.25 690.667 2253.25 687.667 2244.58 687L2195.58 681V619H2365.58V998C2365.58 1009.33 2366.92 1017.67 2369.58 1023C2372.92 1027.67 2378.92 1030.33 2387.58 1031L2434.58 1038ZM2499.45 952H2565.45L2575.45 1021C2602.12 1034.33 2634.12 1041 2671.45 1041C2696.78 1041 2717.78 1036 2734.45 1026C2751.12 1015.33 2759.45 999 2759.45 977C2759.45 963 2754.12 951 2743.45 941C2732.78 931 2716.12 921.333 2693.45 912L2621.45 883C2578.78 866.333 2547.78 848 2528.45 828C2509.12 808 2499.45 781 2499.45 747C2499.45 717 2507.78 691.667 2524.45 671C2541.78 650.333 2564.12 635 2591.45 625C2618.78 614.333 2647.78 609 2678.45 609C2712.45 609 2743.78 612.333 2772.45 619C2801.78 625.667 2825.45 632.333 2843.45 639L2834.45 758H2769.45L2756.45 691C2739.12 685.667 2724.12 682 2711.45 680C2699.45 677.333 2684.45 676 2666.45 676C2644.45 676 2626.78 680.667 2613.45 690C2600.12 698.667 2593.45 712.667 2593.45 732C2593.45 748.667 2599.45 762.667 2611.45 774C2623.45 785.333 2643.12 796.333 2670.45 807L2740.45 834C2780.45 849.333 2810.12 866.667 2829.45 886C2848.78 904.667 2858.45 929 2858.45 959C2858.45 990.333 2849.45 1017.67 2831.45 1041C2813.45 1063.67 2789.78 1081 2760.45 1093C2731.78 1105 2701.12 1111 2668.45 1111C2633.12 1111 2601.45 1108 2573.45 1102C2546.12 1096 2518.12 1087.33 2489.45 1076L2499.45 952Z" fill="#062E54"/>
</svg>
